<?xml version="1.0" encoding="UTF-8"?>
<svg width="25px" height="20px" viewBox="0 0 25 20" version="1.1" xmlns="http://www.w3.org/2000/svg" xmlns:xlink="http://www.w3.org/1999/xlink">
    <!-- Generator: Sketch 52.3 (67297) - http://www.bohemiancoding.com/sketch -->
    <title>icons8-upload_to_cloud</title>
    <desc>Created with Sketch.</desc>
    <g id="TPP-Dashboard" stroke="none" stroke-width="1" fill="currentColor" fill-rule="evenodd">
        <g id="Upload-File-YAML" transform="translate(-37.000000, -237.000000)" fill="currentColor" fill-rule="nonzero">
            <g id="icons8-upload_to_cloud" transform="translate(37.000000, 237.000000)">
                <path d="M14.5,0 C11.892578,0 9.685547,1.58100433 8.625,3.81498886 C8.060547,3.42122173 7.40625,3.1343062 6.671875,3.1343062 C4.808594,3.1343062 3.3222655,4.62824646 3.21875,6.49023001 C1.355469,7.17091267 0,8.93198143 0,11.0492208 C0,13.7482067 2.1640625,15.9406381 4.828125,15.9406381 L9,15.9406381 C9.1796875,15.9426167 9.3476565,15.8476377 9.439453,15.6893394 C9.529297,15.5310411 9.529297,15.337126 9.439453,15.1788277 C9.3476565,15.0205294 9.1796875,14.9255504 9,14.927529 L4.828125,14.927529 C2.703125,14.927529 1,13.200099 1,11.0492208 C1,9.25847153 2.1914065,7.75068004 3.8125,7.2975513 C4.033203,7.23225338 4.1816405,7.02250789 4.171875,6.79099676 C4.169922,6.71976253 4.171875,6.68414567 4.171875,6.68018796 C4.171875,5.27331175 5.283203,4.14741527 6.671875,4.14741527 C7.3671875,4.14741527 8,4.4303736 8.453125,4.89141725 C8.5722655,5.00816237 8.7421875,5.05960906 8.904297,5.0239922 C9.0683595,4.98837483 9.203125,4.87360882 9.265625,4.71728913 C10.0527345,2.56443234 12.095703,1.01310907 14.5,1.01310907 C17.5859375,1.01310907 20.078125,3.53994545 20.078125,6.66435813 C20.078125,6.89586926 20.060547,7.12342318 20.03125,7.36087062 C20.013672,7.50333908 20.0566405,7.64580754 20.1484375,7.75463775 C20.2402345,7.86346795 20.375,7.92678727 20.515625,7.93074447 L20.546875,7.93074447 C22.4589845,7.93074447 24,9.49196126 24,11.4291367 C24,13.3663122 22.4589845,14.927529 20.546875,14.927529 L16,14.927529 C15.8203125,14.9255504 15.652344,15.0205294 15.560547,15.1788277 C15.470703,15.337126 15.470703,15.5310411 15.560547,15.6893394 C15.652344,15.8476377 15.8203125,15.9426167 16,15.9406381 L20.546875,15.9406381 C23,15.9406381 25,13.9144199 25,11.4291367 C25,9.12391798 23.2539065,7.29161499 21.046875,7.0284442 C21.0546875,6.90576328 21.078125,6.79099676 21.078125,6.66435813 C21.078125,2.99183773 18.125,0 14.5,0 Z M12.5,8.64308679 L12.140625,8.99134303 L9.640625,11.5241157 C9.4414065,11.7259463 9.4414065,12.0504578 9.640625,12.2522879 C9.839844,12.4541184 10.1601565,12.4541184 10.359375,12.2522879 L12,10.5901558 L12,19.4865198 C11.998047,19.6685629 12.091797,19.8387338 12.248047,19.9317337 C12.404297,20.0227554 12.595703,20.0227554 12.751953,19.9317337 C12.908203,19.8387338 13.001953,19.6685629 13,19.4865198 L13,10.5901558 L14.640625,12.2522879 C14.839844,12.4541184 15.1601565,12.4541184 15.359375,12.2522879 C15.558594,12.0504578 15.558594,11.7259463 15.359375,11.5241157 L12.859375,8.99134303 L12.5,8.64308679 Z" id="Shape"></path>
            </g>
        </g>
    </g>
</svg>
