<?xml version="1.0" encoding="UTF-8"?>
<svg width="16px" height="19px" viewBox="0 0 16 19" version="1.1" xmlns="http://www.w3.org/2000/svg" xmlns:xlink="http://www.w3.org/1999/xlink">
    <!-- Generator: Sketch 52.3 (67297) - http://www.bohemiancoding.com/sketch -->
    <title>icons8-user</title>
    <desc>Created with Sketch.</desc>
    <g id="TPP-Dashboard" stroke="none" stroke-width="1" fill="none" fill-rule="evenodd">
        <g id="Upload-File-YAML" transform="translate(-41.000000, -183.000000)" fill="currentColor" fill-rule="nonzero">
            <g id="icons8-user" transform="translate(41.000000, 183.000000)">
                <path d="M8,0 C5.3562496,0 3.2,2.20525527 3.2,4.90909091 C3.2,7.61292655 5.3562496,9.81818182 8,9.81818182 C10.6437504,9.81818182 12.8,7.61292655 12.8,4.90909091 C12.8,2.20525527 10.6437504,0 8,0 Z M8,10.8181818 C3.5937504,10.8181818 0,14.4936084 0,19 L1.6,19 C1.6,15.3757098 4.4562496,12.4545455 8,12.4545455 C11.5437504,12.4545455 14.4,15.3757098 14.4,19 L16,19 C16,14.4936084 12.4062496,10.8181818 8,10.8181818 Z M8,1.63636364 C9.775,1.63636364 11.2,3.09375 11.2,4.90909091 C11.2,6.72443182 9.775,8.18181818 8,8.18181818 C6.225,8.18181818 4.8,6.72443182 4.8,4.90909091 C4.8,3.09375 6.225,1.63636364 8,1.63636364 Z" id="Shape"></path>
            </g>
        </g>
    </g>
</svg>
